<svg id="Component_9_1" data-name="Component 9 – 1" xmlns="http://www.w3.org/2000/svg" width="32" height="32" viewBox="0 0 32 32">
  <rect id="Rectangle_1904" data-name="Rectangle 1904" width="32" height="32" rx="8" fill="#fff" opacity="0.15"/>
  <path id="Path_4359" data-name="Path 4359" d="M10.843,0H4.929A4.929,4.929,0,0,0,0,4.929v5.915a4.929,4.929,0,0,0,4.929,4.929h5.915a4.929,4.929,0,0,0,4.929-4.929V4.929A4.929,4.929,0,0,0,10.843,0Zm3.45,10.843a3.454,3.454,0,0,1-3.45,3.45H4.929a3.454,3.454,0,0,1-3.45-3.45V4.929a3.454,3.454,0,0,1,3.45-3.45h5.915a3.454,3.454,0,0,1,3.45,3.45Z" transform="translate(8.241 8.113)" fill="#fff"/>
  <path id="Path_4360" data-name="Path 4360" d="M131.943,128a3.943,3.943,0,1,0,3.943,3.943A3.943,3.943,0,0,0,131.943,128Zm0,6.407a2.464,2.464,0,1,1,2.464-2.464A2.468,2.468,0,0,1,131.943,134.407Z" transform="translate(-115.815 -115.943)" fill="#fff"/>
  <ellipse id="Ellipse_5" data-name="Ellipse 5" cx="0.525" cy="0.525" rx="0.525" ry="0.525" transform="translate(19.841 11.235)" fill="#fff"/>
</svg>
